<?xml version="1.0" encoding="UTF-8" standalone="no"?>
<!-- Created with Inkscape (http://www.inkscape.org/) -->

<svg
   width="165.34758mm"
   height="95.928345mm"
   viewBox="0 0 165.34758 95.928337"
   version="1.1"
   id="svg1"
   xml:space="preserve"
   xmlns:xlink="http://www.w3.org/1999/xlink"
   xmlns="http://www.w3.org/2000/svg"
   xmlns:svg="http://www.w3.org/2000/svg"><defs
     id="defs1"><linearGradient
       id="swatch4833"><stop
         style="stop-color:#000000;stop-opacity:1;"
         offset="0"
         id="stop4833" /></linearGradient><linearGradient
       id="linearGradient4825"><stop
         style="stop-color:#0e96fe;stop-opacity:1;"
         offset="0"
         id="stop4825" /><stop
         style="stop-color:#2c33ea;stop-opacity:0.99607843;"
         offset="0.57699722"
         id="stop4827" /><stop
         style="stop-color:#ab21df;stop-opacity:0.99607843;"
         offset="1"
         id="stop4826" /></linearGradient><linearGradient
       xlink:href="#linearGradient4825"
       id="linearGradient4826"
       x1="117.02854"
       y1="107.72472"
       x2="117.54449"
       y2="199.10933"
       gradientUnits="userSpaceOnUse"
       spreadMethod="reflect" /><linearGradient
       xlink:href="#linearGradient4825"
       id="linearGradient4827"
       gradientUnits="userSpaceOnUse"
       x1="117.02854"
       y1="107.72472"
       x2="117.54449"
       y2="199.10933"
       spreadMethod="reflect"
       gradientTransform="translate(1.1232889,-0.05717302)" /></defs><g
     id="layer1"
     transform="translate(-25.135921,-106.05861)"><path
       d="m 89.124902,201.20599 c -0.21569,-0.0994 -0.0611,-0.61201 0.49738,-1.64946 0.44568,-0.82788 2.77494,-4.83899 5.17615,-8.91357 2.4012,-4.07458 4.81345,-8.12271 5.360548,-8.99583 0.5471,-0.87313 1.79936,-2.95672 2.78279,-4.63021 0.98344,-1.67349 3.0358,-5.1263 4.56081,-7.67292 1.52501,-2.54661 3.95811,-6.65427 5.40689,-9.12812 1.44878,-2.47386 3.12517,-5.33136 3.72531,-6.35 0.82669,-1.40319 2.85605,-3.64766 8.37287,-9.26042 4.00495,-4.07458 12.11542,-12.28989 18.02329,-18.25625 5.90787,-5.96635 12.33971,-12.46692 14.29299,-14.4457 l 3.5514,-3.59778 1.7198,-0.82668 1.71979,-0.82667 13.03594,-0.0735 c 9.86731,-0.0556 12.93479,4.4e-4 12.61983,0.23055 -0.23595,0.17238 -0.29576,0.34421 -0.13814,0.39687 0.15289,0.0511 -1.59697,2.00135 -3.88858,4.33393 -2.2916,2.33258 -7.20247,7.39274 -10.91303,11.24479 -3.71056,3.85206 -10.03253,10.33749 -14.04883,14.41207 -4.0163,4.07458 -9.07664,9.23184 -11.24519,11.46058 -2.16856,2.22873 -4.0988,4.34845 -4.28942,4.71048 l -0.34658,0.65824 0.31914,0.96701 c 0.22214,0.67311 1.976,2.70445 5.77054,6.68355 2.99827,3.14409 7.41593,7.84059 9.81703,10.43665 2.40109,2.59606 5.30466,5.74359 6.45236,6.99451 1.14771,1.25092 3.11273,3.34596 4.3667,4.65564 1.25398,1.30969 2.93016,3.09563 3.72486,3.96875 0.79469,0.87313 3.29452,3.54162 5.55517,5.92999 2.26066,2.38837 4.78667,5.03366 5.61338,5.87842 l 1.50309,1.53592 -0.84163,0.15701 c -0.46291,0.0863 -7.09242,0.11997 -14.73227,0.0747 l -13.89062,-0.0823 -1.67036,-0.90567 c -0.9187,-0.49811 -2.05162,-1.27202 -2.51761,-1.71979 -0.46598,-0.44777 -2.44785,-2.54053 -4.40414,-4.65058 -1.9563,-2.11005 -4.88894,-5.20568 -6.51699,-6.87917 -1.62805,-1.67349 -3.40461,-3.51895 -3.94792,-4.10104 -0.54331,-0.58208 -2.72853,-2.96193 -4.85604,-5.28855 -2.1275,-2.32662 -4.80271,-5.20432 -5.9449,-6.39489 -1.14219,-1.19058 -2.43923,-2.31484 -2.88231,-2.49837 l -0.8056,-0.33369 -0.94051,0.51088 c -0.51728,0.28098 -1.26588,1.04665 -1.66355,1.7015 -0.39768,0.65484 -1.64049,2.73844 -2.7618,4.63021 -1.12131,1.89177 -3.10292,5.28505 -4.40356,7.54062 -1.30065,2.25557 -3.80428,6.50835 -5.56362,9.45062 -1.75934,2.94226 -3.68522,5.84194 -4.27973,6.44371 -0.59452,0.60178 -1.67626,1.4006 -2.40386,1.77516 l -1.32292,0.68102 -6.217708,0.081 c -3.41974,0.0445 -6.35853,0.0161 -6.53064,-0.0633 z"
       style="display:inline;fill:url(#linearGradient4827);stroke:#000000;stroke-opacity:0"
       id="path1" /><path
       style="display:inline;fill:url(#linearGradient4826);stroke:#000000;stroke-opacity:0"
       d="m 78.142833,199.45256 c -0.355694,-0.73925 -1.239615,-2.35613 -1.964269,-3.59306 -0.724654,-1.23692 -3.797147,-6.57293 -6.827763,-11.85779 -3.030616,-5.28486 -5.51021,-9.65517 -5.51021,-9.71179 0,-0.0566 -0.37465,-0.73328 -0.832556,-1.50367 -0.457905,-0.77039 -1.193963,-2.05555 -1.635685,-2.85591 -0.441721,-0.80037 -1.869787,-3.24115 -3.173479,-5.42396 -1.303693,-2.18281 -2.579231,-4.32594 -2.834528,-4.7625 -0.255298,-0.43656 -3.405823,-5.91344 -7.001166,-12.17083 -3.595343,-6.2574 -7.582363,-13.22255 -8.860045,-15.47813 -1.277682,-2.25557 -3.603403,-6.30369 -5.168268,-8.99583 -1.564866,-2.69213 -3.466885,-5.96635 -4.226709,-7.27604 -0.759824,-1.30969 -1.679342,-2.91703 -2.043372,-3.57187 -0.364031,-0.65485 -0.935497,-1.66688 -1.269924,-2.24896 -0.334428,-0.58209 -0.751309,-1.32707 -0.926403,-1.65552 -0.175094,-0.32844 -0.26737,-0.86423 -0.205058,-1.19062 l 0.113295,-0.59345 13.674137,0.1323 13.674136,0.13229 0.926042,0.4292 c 0.509323,0.23606 1.52453,0.87636 2.256015,1.42287 0.731486,0.54652 1.879318,1.7226 2.550739,2.61351 0.67142,0.89091 1.473207,2.09608 1.781747,2.67817 0.308541,0.58208 0.887115,1.61818 1.28572,2.30243 0.398605,0.68426 3.516703,6.1016 6.929106,12.03854 3.412403,5.93694 6.597324,11.4138 7.077604,12.17079 0.480279,0.757 0.873234,1.4393 0.873234,1.51622 0,0.0769 0.433878,0.82679 0.964173,1.66636 0.530295,0.83957 1.429246,2.25424 1.997668,3.14372 0.568422,0.88948 1.308156,1.74238 1.643853,1.89533 0.439569,0.20028 0.787516,0.18995 1.243478,-0.0369 0.348216,-0.17325 1.121934,-1.06137 1.719374,-1.97359 0.59744,-0.91222 1.250089,-1.98056 1.45033,-2.37407 0.200241,-0.39352 2.019889,-3.69205 4.043662,-7.33007 2.023774,-3.63803 4.391241,-7.92427 5.26104,-9.525 0.869799,-1.60073 3.323836,-6.00605 5.453419,-9.78959 l 3.87196,-6.87916 1.59348,-1.5875 c 1.09206,-1.08797 2.00787,-1.73361 2.91041,-2.05183 l 1.31694,-0.46433 12.12031,0.001 c 7.4127,8e-4 12.06117,0.097 11.96808,0.24761 -0.0837,0.13546 -0.0307,0.32138 0.11773,0.41314 0.16382,0.10125 0.0218,0.49852 -0.36132,1.01047 -0.34721,0.46399 -0.82703,1.20081 -1.06628,1.63738 -0.23924,0.43656 -0.69978,1.22372 -1.02342,1.74924 -0.32364,0.52553 -1.77906,3.00289 -3.23426,5.50527 -1.45521,2.50237 -2.83821,4.87036 -3.07333,5.26221 -0.23511,0.39184 -1.43475,2.37932 -2.66586,4.41661 -1.2311,2.03729 -2.68212,4.47807 -3.22447,5.42396 -0.54236,0.94588 -1.94723,3.32713 -3.12193,5.29166 -1.17471,1.96453 -3.29147,5.53641 -4.70391,7.9375 -1.41245,2.4011 -3.33633,5.65279 -4.76687,8.06979 -1.43054,2.417 -2.92605,4.93217 -3.81495,6.43306 -0.8889,1.50089 -2.09243,3.5312 -2.67452,4.5118 -0.58208,0.9806 -1.989921,3.384 -3.128532,5.3409 -1.138612,1.9569 -3.029179,5.16534 -4.201262,7.12987 -1.172083,1.96453 -2.90322,4.88156 -3.846971,6.48229 -0.943751,1.60073 -1.922653,3.2676 -2.175337,3.70417 -0.252684,0.43656 -0.947275,1.56765 -1.543535,2.51354 -0.59626,0.94588 -1.834447,3.00663 -2.751525,4.57943 -0.917079,1.57281 -1.876024,3.18015 -2.130989,3.57188 -0.254966,0.39173 -0.63332,1.06942 -0.840787,1.50598 -0.207468,0.43656 -0.594173,0.92234 -0.859344,1.07952 l -0.48213,0.28576 z"
       id="path4821" /></g></svg>
