<?xml version="1.0" encoding="UTF-8" standalone="no"?>
<!-- Created with Inkscape (http://www.inkscape.org/) -->

<svg
   width="181.58162mm"
   height="119.803mm"
   viewBox="0 0 181.58162 119.803"
   version="1.1"
   id="svg1"
   xml:space="preserve"
   xmlns="http://www.w3.org/2000/svg"
   xmlns:svg="http://www.w3.org/2000/svg"><defs
     id="defs1" /><g
     id="layer1"
     transform="translate(-14.487805,-83.026267)"><path
       style="fill:#000000"
       d="m 73.430367,189.28613 c -0.422911,-0.76384 -2.276747,-4.00817 -4.119636,-7.20963 -3.159765,-5.48913 -8.764379,-15.34754 -11.732646,-20.6375 -0.734883,-1.30968 -2.783375,-4.82203 -4.552205,-7.8052 -1.76883,-2.98318 -5.217644,-8.93631 -7.664032,-13.22917 -2.446387,-4.29286 -5.259078,-9.18268 -6.250425,-10.86626 -0.991347,-1.68358 -3.690527,-6.38655 -5.998178,-10.45104 -2.307651,-4.0645 -5.005323,-8.75921 -5.994827,-10.4327 -2.329569,-3.93986 -6.497243,-11.32518 -6.497243,-11.513427 0,-0.08033 6.280546,-0.112283 13.95677,-0.071 l 13.95677,0.07506 1.190625,0.633302 c 3.566221,1.8969 2.443179,0.187993 19.032787,28.961745 6.688899,11.60153 7.207739,12.3414 8.654424,12.3414 h 0.58197 l 0.892838,-1.04308 0.892839,-1.04308 6.05545,-10.92931 C 99.423807,101.54135 99.720414,101.02389 101.00475,99.602276 l 0.94222,-1.042918 1.3397,-0.70705 1.33971,-0.70705 12.66148,-0.07594 12.66149,-0.07594 -0.52397,0.869688 c -0.28818,0.478329 -1.92615,3.250944 -3.63993,6.161354 -1.71378,2.91042 -4.74797,8.03011 -6.74264,11.37709 -1.99467,3.34698 -4.39632,7.3951 -5.33701,8.99583 -0.94068,1.60073 -5.70094,9.63745 -10.57835,17.85937 -4.877408,8.22193 -11.041193,18.6399 -13.697299,23.15104 -8.485253,14.4114 -14.962296,25.24618 -15.098562,25.25683 -0.07276,0.006 -0.47831,-0.61461 -0.901222,-1.37845 z"
       id="path2" /><path
       d="m 85.614035,190.61621 c 0,-0.34054 5.668649,-10.026 12.305501,-21.02519 2.886984,-4.78457 11.992974,-20.13619 14.909364,-25.13542 l 1.46633,-2.51354 5.56459,-5.68854 c 3.06053,-3.1287 10.38953,-10.57011 16.28667,-16.53646 5.89714,-5.96635 13.16207,-13.33552 16.14428,-16.37592 l 5.42221,-5.527996 1.5875,-0.755655 1.5875,-0.75564 12.89844,-2.08e-4 c 7.09414,-1.15e-4 12.8959,0.02956 12.8928,0.06594 -0.003,0.03638 -1.40209,1.515963 -3.10886,3.287963 -11.1015,11.525786 -16.92066,17.509566 -27.74334,28.528186 -6.71786,6.83947 -12.64337,12.95269 -13.16781,13.58492 l -0.95352,1.14952 v 0.90024 0.90025 l 0.99219,1.12503 c 0.5457,0.61876 3.13531,3.38951 5.75469,6.15721 2.61937,2.7677 6.01265,6.39104 7.54062,8.05186 7.04831,7.66116 10.34228,11.20114 12.81453,13.77159 1.4696,1.52797 5.05136,5.33675 7.95947,8.46396 2.9081,3.12722 5.87573,6.31791 6.59474,7.09044 l 1.30728,1.40458 -14.40415,-0.079 -14.40416,-0.079 -1.45521,-0.68985 c -2.12343,-1.00662 -3.2963,-2.08361 -9.69978,-8.90685 -5.17829,-5.51773 -8.36637,-8.93992 -17.77645,-19.08185 -1.53807,-1.65768 -3.15864,-3.23481 -3.60127,-3.50474 l -0.80479,-0.49077 -0.75873,-9.9e-4 -0.75873,-9.9e-4 -0.97831,0.99219 -0.97831,0.99218 -4.05139,7.01146 c -12.59392,21.79544 -12.93855,22.27887 -16.673202,23.38794 l -1.429655,0.42456 h -5.640519 c -3.102285,0 -5.640519,-0.0637 -5.640519,-0.14147 z"
       style="display:inline;fill:#000000;stroke:none"
       id="path1" /></g></svg>
